<svg version="1.2" xmlns="http://www.w3.org/2000/svg" viewBox="0 0 573 548" width="573" height="548">
	<title>erocket-light</title>
	<defs>
		<linearGradient id="g1" x2="1" gradientUnits="userSpaceOnUse" gradientTransform="matrix(0,527.1,-527.1,0,263.55,10.7)">
			<stop offset="0" stop-color="#3541b4"/>
			<stop offset="1" stop-color="#271764"/>
		</linearGradient>
		<linearGradient id="g2" x2="1" gradientUnits="userSpaceOnUse" gradientTransform="matrix(125.77,0,0,97.385,52.61,427.76)">
			<stop offset="0" stop-color="#ff4d0d"/>
			<stop offset="1" stop-color="#ff912c"/>
		</linearGradient>
	</defs>
	<style>
		.s0 { fill: url(#g1) } 
		.s1 { fill: url(#g2) } 
		.s2 { fill: #ffffff } 
	</style>
	<path class="s0" d="m263.6 10.7c-145.6 0-263.6 118-263.6 263.6 0 34.3 6.6 67.1 18.5 97.2l0.9-1.2c67.9-88.4 190.3-40.3 190.4-40.3 0 0 52.6 120.7-33.3 191.7l-1.2 0.9h0.1c27.5 9.8 57.2 15.2 88.1 15.2 145.6 0 263.6-118 263.6-263.6 0-145.5-118-263.5-263.6-263.5z"/>
	<path class="s1" d="m134.6 404.4c0.7-0.8 1.4-1.5 2.1-2.2 15-14.6 41.7-13.9 41.7-13.9 0 0-11-7.5-31.2-8.9-15.1-1.1-26.5 1.7-33.7 4.4-5.9 2.2-9 4.4-9 4.4 0 0-21.3 13.5-30.4 17.9-4.4 1.7-9.7 0.3-9.7 0.3 0 0 5.7 12.1 26.4 11.1 0 0-6.6 33.2-38 50.9 0 0 7.7 4.8 28.5 7.5 27.2 3.4 37.4-11.2 42.1-15.9 23.6-29.8 45.9-29.5 45.9-29.5 0 0-24-12.8-49.5 3-0.1-0.1 4.5-17.5 14.8-29.1z"/>
	<path class="s2" d="m431.4 100.1c0 0-104.7-4.5-172.9 66.3-19.6 20.4-32.1 42.1-39.9 62.8-167.1 1.7-196.8 125.7-199.8 140.8 0 0.3-0.3 1.5-0.3 1.5l0.9-1.2c67.9-88.4 190.3-40.3 190.4-40.3 0 0 52.6 120.7-33.3 191.7l-1.2 0.9h0.1c0.1 0 1.1-0.2 1.4-0.3 0 0 137.8-37.8 133.4-204.9 20.4-8.5 41.6-21.8 61.2-42.2 68.2-70.8 60-175.1 60-175.1zm-47.5 81.2c-8.5 8.8-22.5 9.1-31.3 0.7-8.8-8.5-9.1-22.5-0.6-31.3 8.4-8.8 22.4-9.1 31.2-0.6 8.8 8.5 9.1 22.4 0.7 31.2z"/>
	<g>
		<path class="s2" d="m768.7 208.5c13.9 0 26.6 2.2 38.3 6.6 11.7 4.4 21.7 10.9 30.1 19.4 8.4 8.5 15 18.9 19.7 31.3 4.7 12.4 7.1 26.5 7.1 42.4 0 4-0.2 7.3-0.5 10-0.4 2.6-1 4.7-1.9 6.2-0.9 1.5-2.2 2.6-3.8 3.2-1.6 0.6-3.6 1-6 1h-136c1.6 22.6 7.6 39.2 18.2 49.8q15.9 15.9 42 15.9 12.9 0 22.2-3c6.2-2 11.7-4.2 16.3-6.6 4.6-2.4 8.7-4.6 12.2-6.6q5.3-3 10.2-3c2.1 0 4 0.4 5.6 1.3 1.6 0.9 2.9 2.1 4.1 3.6l15.4 19.3c-5.9 6.9-12.4 12.6-19.7 17.3-7.3 4.6-14.9 8.4-22.8 11.2-7.9 2.8-16 4.8-24.2 5.9-8.2 1.1-16.2 1.7-23.9 1.7-15.3 0-29.5-2.5-42.7-7.6-13.2-5.1-24.6-12.6-34.3-22.5-9.7-9.9-17.4-22.2-22.9-36.9-5.6-14.7-8.4-31.6-8.4-50.9 0-15 2.4-29.1 7.3-42.4 4.9-13.2 11.8-24.7 20.9-34.5 9.1-9.8 20.2-17.5 33.2-23.3 13.1-6 27.8-8.8 44.3-8.8zm1 38c-15.4 0-27.5 4.4-36.2 13.1-8.7 8.7-14.3 21.1-16.7 37.1h99.5c0-6.9-0.9-13.3-2.8-19.4-1.9-6.1-4.7-11.4-8.6-16-3.9-4.6-8.7-8.2-14.6-10.8-5.8-2.7-12.7-4-20.6-4z"/>
		<path class="s2" d="m990.2 310.8v121.2h-57.7v-310.2h94.6c21.2 0 39.3 2.2 54.4 6.5 15.1 4.4 27.4 10.5 37.1 18.3 9.7 7.9 16.7 17.3 21.2 28.2 4.5 10.9 6.8 23 6.8 36.1 0 10.4-1.5 20.3-4.6 29.6-3.1 9.3-7.5 17.7-13.3 25.3-5.8 7.6-12.9 14.2-21.4 19.9-8.5 5.7-18.2 10.3-29.1 13.7 7.3 4.1 13.6 10.1 18.9 17.8l77.6 114.5h-51.9c-5 0-9.3-1-12.8-3-3.5-2-6.5-4.9-8.9-8.6l-65.2-99.3c-2.4-3.7-5.1-6.4-8-7.9-2.9-1.6-7.3-2.4-13-2.4h-24.7zm0-41.5h36c10.9 0 20.3-1.4 28.4-4.1 8.1-2.7 14.7-6.5 19.9-11.3 5.2-4.8 9.1-10.5 11.7-17 2.6-6.6 3.9-13.8 3.9-21.7 0-15.7-5.2-27.8-15.5-36.2-10.4-8.4-26.2-12.7-47.5-12.7h-36.9z"/>
		<path class="s2" d="m1323 208.5c16.4 0 31.3 2.6 44.7 7.9q20.1 7.9 34.2 22.5c9.4 9.7 16.7 21.6 21.9 35.6 5.1 14 7.7 29.7 7.7 47 0 17.3-2.6 33.2-7.7 47.2-5.1 14-12.4 25.9-21.9 35.8-9.4 9.9-20.8 17.4-34.2 22.7-13.4 5.3-28.3 7.9-44.7 7.9-16.4 0-31.4-2.6-44.8-7.9-13.4-5.3-24.9-12.9-34.4-22.7-9.5-9.9-16.9-21.8-22.1-35.8-5.2-14-7.8-29.7-7.8-47.2 0-17.5 2.6-33 7.8-47 5.2-14 12.6-25.9 22.1-35.6 9.5-9.7 21-17.2 34.4-22.5 13.4-5.3 28.4-7.9 44.8-7.9zm0 186c18.3 0 31.8-6.1 40.6-18.4q13.2-18.4 13.2-54 0-35.5-13.2-54.3c-8.8-12.4-22.3-18.7-40.6-18.7-18.3 0-32.3 6.3-41.2 18.8-8.9 12.5-13.3 30.6-13.3 54.1 0 23.5 4.4 41.6 13.3 53.9 8.9 12.3 22.6 18.6 41.2 18.6z"/>
		<path class="s2" d="m1648.1 258.5c-1.6 2-3.1 3.6-4.6 4.7-1.5 1.1-3.7 1.7-6.5 1.7-2.8 0-5.4-0.8-7.9-2.5-2.6-1.6-5.6-3.5-9.2-5.6-3.6-2.1-7.8-3.9-12.8-5.6-4.9-1.6-11-2.5-18.3-2.5-9.3 0-17.4 1.7-24.4 5-7 3.4-12.8 8.2-17.5 14.5-4.6 6.3-8.1 13.9-10.4 22.8-2.3 8.9-3.4 19.1-3.4 30.3 0 11.2 1.2 22.2 3.8 31.3 2.5 9.2 6.1 16.8 10.8 23.1 4.7 6.2 10.4 10.9 17.2 14.2 6.7 3.2 14.3 4.8 22.7 4.8 8.4 0 15.3-1 20.5-3.1q7.8-3.2 13.2-6.9 5.4-3.8 9.3-6.9c2.6-2.1 5.6-3.1 8.9-3.1 4.3 0 7.5 1.6 9.7 4.9l15.2 19.3c-5.9 6.9-12.2 12.6-19.1 17.3-6.9 4.6-14 8.4-21.3 11.2-7.4 2.8-15 4.8-22.8 5.9-7.9 1.1-15.7 1.7-23.4 1.7-13.6 0-26.4-2.5-38.4-7.6-12-5.1-22.5-12.5-31.4-22.2-8.9-9.7-16-21.6-21.2-35.7-5.2-14.1-7.8-30.1-7.8-48.1 0-16.2 2.3-31.1 7-44.9 4.6-13.8 11.5-25.7 20.5-35.8 9-10.1 20.2-18 33.5-23.7 13.3-5.7 28.6-8.6 45.9-8.6 16.4 0 30.8 2.6 43.2 7.9 12.4 5.3 23.5 12.9 33.3 22.7z"/>
		<path class="s2" d="m1772.3 113.2v182.5h9.9q5.4 0 8.4-1.5c2-1 4.1-2.9 6.4-5.6l54.7-67.6c2.4-2.9 5-5.1 7.7-6.8 2.7-1.6 6.3-2.5 10.7-2.5h48.5l-68.4 81.7c-2.4 3-4.9 5.8-7.5 8.3-2.6 2.5-5.4 4.7-8.4 6.5 3 2.1 5.6 4.6 7.9 7.5 2.3 2.9 4.6 5.9 6.9 9.2l73.3 106.8h-47.8c-4.1 0-7.7-0.7-10.5-2.1-2.9-1.4-5.4-3.9-7.7-7.3l-56-83.4c-2.1-3.3-4.3-5.4-6.4-6.4-2.1-1-5.4-1.5-9.7-1.5h-12v100.8h-53v-318.6z"/>
		<path class="s2" d="m2053.9 208.5c13.9 0 26.6 2.2 38.3 6.6 11.7 4.4 21.7 10.9 30.1 19.4 8.4 8.5 15 18.9 19.7 31.3 4.7 12.4 7.1 26.5 7.1 42.4 0 4-0.2 7.3-0.5 10-0.4 2.6-1 4.7-1.9 6.2-0.9 1.5-2.2 2.6-3.8 3.2-1.6 0.6-3.6 1-6 1h-136c1.6 22.6 7.6 39.2 18.2 49.8q15.9 15.9 42 15.9 12.9 0 22.2-3c6.2-2 11.7-4.2 16.3-6.6 4.6-2.4 8.7-4.6 12.2-6.6q5.2-3 10.2-3c2.1 0 4 0.4 5.6 1.3 1.6 0.9 2.9 2.1 4.1 3.6l15.4 19.3c-5.9 6.9-12.4 12.6-19.7 17.3-7.3 4.6-14.9 8.4-22.8 11.2-7.9 2.8-16 4.8-24.2 5.9-8.2 1.1-16.2 1.7-23.9 1.7-15.3 0-29.5-2.5-42.7-7.6-13.2-5.1-24.6-12.6-34.3-22.5-9.7-9.9-17.4-22.2-22.9-36.9-5.6-14.7-8.4-31.6-8.4-50.9 0-15 2.4-29.1 7.3-42.4 4.9-13.2 11.8-24.7 20.9-34.5 9.1-9.8 20.2-17.5 33.2-23.3 13.1-6 27.8-8.8 44.3-8.8zm1 38c-15.4 0-27.5 4.4-36.2 13.1-8.7 8.7-14.3 21.1-16.7 37.1h99.5c0-6.9-0.9-13.3-2.8-19.4-1.9-6.1-4.7-11.4-8.6-16-3.9-4.6-8.7-8.2-14.6-10.8-5.8-2.7-12.7-4-20.6-4z"/>
		<path class="s2" d="m2285 435.3c-19 0-33.7-5.4-44-16.2-10.3-10.8-15.4-25.7-15.4-44.7v-122.9h-22.3c-2.9 0-5.3-0.9-7.4-2.8-2.1-1.9-3.1-4.6-3.1-8.4v-21l35.4-5.8 11.2-60c0.6-2.9 1.9-5.1 4-6.6q3.1-2.4 7.8-2.4h27.4v69.3h57.9v37.7h-57.9v119.3c0 6.9 1.7 12.2 5.1 16.1 3.4 3.9 8 5.8 13.7 5.8 3.3 0 6-0.4 8.3-1.2 2.2-0.8 4.1-1.6 5.8-2.5 1.6-0.9 3.1-1.7 4.4-2.5q2-1.2 3.9-1.2 2.4 0 3.9 1.2c1 0.8 2.1 2 3.2 3.5l15.9 25.7c-7.7 6.4-16.6 11.3-26.6 14.6-10.1 3.5-20.5 5-31.2 5z"/>
	</g>
</svg>